<svg xmlns="http://www.w3.org/2000/svg" viewBox="0 0 724.51 192.75">
  <g>
    <path d="M91.61,33.22A45.81,45.81,0,1,0,137.42,79,45.82,45.82,0,0,0,91.61,33.22Zm18.67,30.57c2.46,0,4.46,2.55,4.46,5.7s-2,5.7-4.46,5.7-4.46-2.55-4.46-5.7S107.82,63.79,110.28,63.79ZM73,63.79c2.46,0,4.46,2.55,4.46,5.7s-2,5.7-4.46,5.7-4.46-2.55-4.46-5.7S70.5,63.79,73,63.79Zm47,28.36A31.58,31.58,0,0,1,91.62,110.3h0A31.44,31.44,0,0,1,63.18,92a2.32,2.32,0,0,1,2.2-3.26h52.43A2.33,2.33,0,0,1,120,92.15Z" fill="none"/>
    <g>
      <path d="M281.13,116.37A29.68,29.68,0,0,1,264,109.85a22.15,22.15,0,0,1-7.8-17.42h0V61.73c0-7-9.57-7-9.57,0v30.7h0a31.5,31.5,0,0,0,11.16,24.71c6.09,5.17,14.26,8.25,23.36,8.79C287.31,126.29,287.08,116.82,281.13,116.37Z" fill="#212e40"/>
      <path d="M294.7,33.52a11.86,11.86,0,0,0,10.4-6.72,12.37,12.37,0,0,0,.86-2.41,11.61,11.61,0,0,0,.3-2.62h0v-.07h0a11.84,11.84,0,0,0-2.5-7.29,10.38,10.38,0,0,0-1-1.1,11.75,11.75,0,0,0-8.37-3.47h0a11.91,11.91,0,0,0-10.5,6.33,13.14,13.14,0,0,0-.92,2.33h0a12.57,12.57,0,0,0-.41,2.55V38.58a2.1,2.1,0,1,0,4.17,0v-5h8Zm-5-4.16h-3v-2c0-3.36,0-6.07,0-6.13v0A7.48,7.48,0,0,1,287,19.6h0a8.14,8.14,0,0,1,.61-1.5A7.66,7.66,0,0,1,294.4,14h0a7.64,7.64,0,0,1,5.41,2.25,7.06,7.06,0,0,1,.63.72,7.62,7.62,0,0,1,1.61,4.71h0v.06a8.12,8.12,0,0,1-.2,1.69,7.18,7.18,0,0,1-.56,1.56,7.68,7.68,0,0,1-6.71,4.36Z" fill="#212e40"/>
      <path d="M468.15,38.13v-4.6h8a9.69,9.69,0,0,0,1.2-.09L479.78,39c1.26,3.07,5.71,2,4.23-1.47l-2.55-5.37a11.94,11.94,0,0,0,5.07-5.31,12.37,12.37,0,0,0,.86-2.41,11.61,11.61,0,0,0,.3-2.62h0v-.07h0a11.89,11.89,0,0,0-2.49-7.29,10.46,10.46,0,0,0-1-1.1,11.75,11.75,0,0,0-8.38-3.47h0a11.91,11.91,0,0,0-10.5,6.33,13.14,13.14,0,0,0-.92,2.33h0A11.92,11.92,0,0,0,464,21V38.13C464,41.79,468.15,41.79,468.15,38.13Zm0-10.73c0-3.36,0-6.07,0-6.13v0a7.48,7.48,0,0,1,.27-1.65h0a8.14,8.14,0,0,1,.61-1.5,7.67,7.67,0,0,1,6.78-4.1h0a7.65,7.65,0,0,1,5.42,2.25,8.67,8.67,0,0,1,.64.72,7.67,7.67,0,0,1,1.6,4.71h0v.06a8.12,8.12,0,0,1-.2,1.69,7.18,7.18,0,0,1-.56,1.56A7.67,7.67,0,0,1,476,29.35h-7.88Z" fill="#212e40"/>
      <path d="M404.69,37.86l0-22.43,13.91,25.06h5.59V12.25c0-3.57-4.37-3.55-4.37.12l0,22.18L406.26,10h-5.94V38C400.32,41.93,404.69,41.9,404.69,37.86Z" fill="#212e40"/>
      <path d="M251.16,38.38l2.25-5.57h14.93l2.22,5.49c1.44,3.58,6.52,4.28,4-1.67L264.39,12.54c-1.55-3.5-5.16-3.39-6.65-.09L247.22,37C244.86,42.52,249.83,41.7,251.16,38.38Zm9.72-24.26L267,29.23H254.81Z" fill="#212e40"/>
      <path d="M317.73,38.58v-5h8a11.88,11.88,0,0,0,10.4-6.72,13,13,0,0,0,.85-2.41,11.61,11.61,0,0,0,.3-2.62h0v-.07h0a11.89,11.89,0,0,0-2.49-7.29,10.46,10.46,0,0,0-1-1.1,11.73,11.73,0,0,0-8.37-3.47h0a11.89,11.89,0,0,0-10.49,6.33,14,14,0,0,0-.93,2.33h0a11.92,11.92,0,0,0-.42,2.55V38.58C313.56,41.74,317.73,42,317.73,38.58Zm0-11.18c0-3.36,0-6.07,0-6.13v0A8.12,8.12,0,0,1,318,19.6h0a8.14,8.14,0,0,1,.61-1.5,7.67,7.67,0,0,1,6.78-4.1h0a7.64,7.64,0,0,1,5.41,2.25,8.67,8.67,0,0,1,.64.72,7.68,7.68,0,0,1,1.61,4.71h0v.06a7.5,7.5,0,0,1-.2,1.69,6.69,6.69,0,0,1-.56,1.56,7.67,7.67,0,0,1-6.71,4.36h-7.88Z" fill="#212e40"/>
      <path d="M364.81,13.29a11.73,11.73,0,0,0-8.37-3.47h0a11.9,11.9,0,0,0-10.49,6.33,13.14,13.14,0,0,0-.92,2.33h0a11.91,11.91,0,0,0-.41,2.55v.05c0,.06,0,2.87,0,6.33V38.58c0,2.83,4.17,3.11,4.17.07V33.53h8a9.71,9.71,0,0,0,1.21-.09l2.39,5.43c1.5,3.77,5.92,1.5,4.08-1.8l-2.36-5a12,12,0,0,0,5.08-5.31,13.06,13.06,0,0,0,.86-2.41,12.22,12.22,0,0,0,.3-2.62h0v-.07h0a11.84,11.84,0,0,0-2.5-7.29A9.46,9.46,0,0,0,364.81,13.29Zm-.71,8.45a7.5,7.5,0,0,1-.2,1.69,6.69,6.69,0,0,1-.56,1.56,7.65,7.65,0,0,1-6.71,4.36h-7.88v-2c0-3.36,0-6.07,0-6.13v0A7.48,7.48,0,0,1,349,19.6h0a8.14,8.14,0,0,1,.61-1.5,7.67,7.67,0,0,1,6.78-4.1h0a7.64,7.64,0,0,1,5.41,2.25,8.67,8.67,0,0,1,.64.72,7.68,7.68,0,0,1,1.61,4.71h0Z" fill="#212e40"/>
      <path d="M586.07,66.57v0a36.52,36.52,0,0,0-25.91-10.72v0h0v0a36.6,36.6,0,0,0-36.62,36.62h0a36.6,36.6,0,0,0,36.62,36.62h0a36.6,36.6,0,0,0,36.62-36.63h0A36.53,36.53,0,0,0,586.07,66.57Zm2,25.89a28,28,0,0,1-28,28v0h0v0A28,28,0,0,1,532.2,92.47h0A28,28,0,0,1,560.15,64.5h0a27.85,27.85,0,0,1,19.76,8.2h0a27.88,27.88,0,0,1,8.19,19.76h0Z" fill="#212e40"/>
      <path d="M645.12,57.42H602.33c-7.84,0-7.69,8.68.52,8.68H618.8v55.06c0,8,9.85,8,9.85.17V66.1h16.29C652.81,66.1,652.86,57.42,645.12,57.42Z" fill="#212e40"/>
      <path d="M722.41,92.45a36.53,36.53,0,0,0-10.72-25.88v0a36.52,36.52,0,0,0-25.91-10.72v0h0v0a36.6,36.6,0,0,0-36.62,36.62h0a36.6,36.6,0,0,0,36.62,36.62h0a36.6,36.6,0,0,0,36.62-36.63h0Zm-8.67,0a28,28,0,0,1-28,28v0h0v0a28,28,0,0,1-27.95-27.95h0A28,28,0,0,1,685.77,64.5h0a27.85,27.85,0,0,1,19.76,8.2h0a27.88,27.88,0,0,1,8.19,19.76h0Z" fill="#212e40"/>
      <path d="M509.69,36.65H499.36v-10h9.9a1.92,1.92,0,1,0,0-3.84h-9.9V13.86h10.58c3.35,0,3.33-3.84-.07-3.84H495V40.49h14.64C513.35,40.49,513.37,36.65,509.69,36.65Z" fill="#212e40"/>
      <path d="M332.59,64.23c-2.09-5-4.22-7.46-8-7.48s-6,2.45-8.09,7.41L293,118.62c-4.42,10.34,6.52,9.61,8.66,4.29l5.67-14h33.7l5.16,12.79c3.08,7.63,12.29,5.29,9-4ZM310.5,100.79l13.7-34.1,13.7,34.1Z" fill="#212e40"/>
      <path d="M502.11,63.13v29.4H469.2V63c0-8.71-9.86-8.67-9.86.17v57.16c0,9.18,9.86,9.18,9.86,0V101.2h32.91v18.92c0,9.52,9.86,9.4,9.86-.35V63.13C512,54.24,502.11,54.24,502.11,63.13Z" fill="#212e40"/>
      <path d="M440.68,63.67a27,27,0,0,0-19.14-7.91v0h0a27.06,27.06,0,0,0-24,14.46,26.25,26.25,0,0,0-2.11,5.31h0a26.82,26.82,0,0,0-1,5.8v.13c0,.14,0,6.52,0,14.45v25.8c0,7,9.53,7.22,9.54,0V109.86h18.2A27.1,27.1,0,0,0,445.94,94.5a26.69,26.69,0,0,0,1.95-5.5,27.25,27.25,0,0,0,.7-6v-.21l0,0a27,27,0,0,0-5.69-16.6A27.45,27.45,0,0,0,440.68,63.67ZM439.06,83A17.52,17.52,0,0,1,422,100.33H404V95.89c0-7.67,0-13.86,0-14v-.06h0a17.19,17.19,0,0,1,.62-3.74v0a17.5,17.5,0,0,1,16.87-12.76h0v0a17.45,17.45,0,0,1,12.37,5.15,14.8,14.8,0,0,1,1.45,1.64A17.37,17.37,0,0,1,439,82.81h0Z" fill="#212e40"/>
      <path d="M390.78,36.65H380v-10h9.78a1.93,1.93,0,1,0,.12-3.84H380V13.86h10.83c2.86.21,2.86-3.64,0-3.84H375.59V40.49h15.08C393.78,40.49,393.82,36.65,390.78,36.65Z" fill="#212e40"/>
      <path d="M452,14a15.58,15.58,0,0,0-5.15-3,19.3,19.3,0,0,0-6.35-1h-9V40.49h9a21.84,21.84,0,0,0,6.76-1,13.41,13.41,0,0,0,5.11-2.93,12.76,12.76,0,0,0,3.23-4.84A18.6,18.6,0,0,0,456.69,25a15,15,0,0,0-1.27-6.3A13.61,13.61,0,0,0,452,14Zm-2.9,19.86c-2,1.87-4.9,2.8-8.65,2.8h-4.58V13.86h5.11a12.48,12.48,0,0,1,4.38.76,10.24,10.24,0,0,1,3.54,2.23,10.41,10.41,0,0,1,2.36,3.56,12.67,12.67,0,0,1,.85,4.76C452.06,29.1,451.05,32,449.05,33.85Z" fill="#212e40"/>
      <path d="M73,75.19c2.46,0,4.46-2.55,4.46-5.7s-2-5.7-4.46-5.7-4.46,2.55-4.46,5.7S70.5,75.19,73,75.19Z" fill="#212e40"/>
      <path d="M117.81,88.75H65.38A2.32,2.32,0,0,0,63.18,92a31.44,31.44,0,0,0,28.43,18.28h0A31.58,31.58,0,0,0,120,92.15,2.33,2.33,0,0,0,117.81,88.75Z" fill="#212e40"/>
      <path d="M110.28,75.19c2.46,0,4.46-2.55,4.46-5.7s-2-5.7-4.46-5.7-4.46,2.55-4.46,5.7S107.82,75.19,110.28,75.19Z" fill="#212e40"/>
      <path d="M162.76,19.74q-13.92-.91-27.86-1.53c-.46-1.09-.93-2.19-1.44-3.28C130.88,9.32,123,3.85,118.44,3.5c-9-.69-17.92-.83-26.86-.84s-17.87.12-26.83.81c-4.6.36-12.41,5.86-15,11.46-.5,1.09-1,2.18-1.43,3.27q-13.95.6-27.9,1.53c-7.53.5-14.62,7.34-15.29,14.88q-2,22.35-2,44.72t2,44.69c.68,7.55,7.78,14.36,15.31,14.85,20.62,1.37,41.26,2.22,61.87,2.42l19.76,20.08L102,141.29q14.65-.15,29.31-.73.09-9.74,1-19.46a8.43,8.43,0,0,1,7.47-7.26c11.58-.77,23.18-1.21,34.75-1.21,1.5,0,3,0,4.5,0q1.13-16.67,1.13-33.34,0-22.36-2-44.72C177.44,27.07,170.29,20.24,162.76,19.74ZM91.61,124.84A45.81,45.81,0,1,1,137.42,79,45.82,45.82,0,0,1,91.61,124.84Z" fill="#212e40"/>
    </g>
    <g>
      <path d="M480.5,146.76H480a1.71,1.71,0,0,0-1.38.5,4.82,4.82,0,0,0-.74,1.18l-4.19,9.45-4.18-9.45a4.85,4.85,0,0,0-.75-1.18,1.71,1.71,0,0,0-1.38-.5h-.51a2,2,0,0,0-1.95,2v19.82a1.74,1.74,0,0,0,.6,1.45,2.19,2.19,0,0,0,1.35.47,2.15,2.15,0,0,0,1.35-.47,1.72,1.72,0,0,0,.61-1.45V156.17l2.87,6.62a1.92,1.92,0,0,0,.95,1.08,2.4,2.4,0,0,0,2.09,0,1.9,1.9,0,0,0,.94-1.08l2.87-6.62v12.36a1.75,1.75,0,0,0,.61,1.45,2.17,2.17,0,0,0,2.7,0,1.72,1.72,0,0,0,.61-1.45V148.71a2,2,0,0,0-2-2Z" fill="#fb9e25"/>
      <path d="M716.77,161a9.08,9.08,0,0,0-1.83-2.26,14.2,14.2,0,0,0-2.36-1.71l-2.36-1.35a14,14,0,0,1-1.82-1.19,1.61,1.61,0,0,1-.73-1.25v-.51a1.81,1.81,0,0,1,.76-1.54,3.09,3.09,0,0,1,1.87-.55h.31a3.61,3.61,0,0,1,1.95.47,1.35,1.35,0,0,1,.75,1.15,1.55,1.55,0,0,0,.59,1.35,2.13,2.13,0,0,0,1.3.44,2.21,2.21,0,0,0,1.36-.46,1.64,1.64,0,0,0,.63-1.43,4.55,4.55,0,0,0-.54-2.21,5.3,5.3,0,0,0-1.45-1.71,7,7,0,0,0-2.1-1.1,8.16,8.16,0,0,0-2.49-.38h-.31a7.29,7.29,0,0,0-2.26.38,7.41,7.41,0,0,0-2.11,1.13,6.2,6.2,0,0,0-1.57,1.81,4.92,4.92,0,0,0-.61,2.45v.71a4.74,4.74,0,0,0,.73,2.65,8.18,8.18,0,0,0,1.82,2,15.3,15.3,0,0,0,2.37,1.54c.84.45,1.63.9,2.36,1.35a8.34,8.34,0,0,1,1.82,1.47,2.66,2.66,0,0,1,.73,1.84,2.24,2.24,0,0,1-.85,1.92,3.38,3.38,0,0,1-2.12.64h-.31a3,3,0,0,1-2.07-.72,2.78,2.78,0,0,1-.8-2.15,1.76,1.76,0,0,0-.6-1.46,2.1,2.1,0,0,0-1.35-.49,2.06,2.06,0,0,0-1.35.49,1.74,1.74,0,0,0-.61,1.46,7.09,7.09,0,0,0,.54,2.84,6,6,0,0,0,1.48,2.11,6.81,6.81,0,0,0,2.18,1.32,7.45,7.45,0,0,0,2.58.45h.31a8,8,0,0,0,2.73-.45,6.72,6.72,0,0,0,2.18-1.3,6,6,0,0,0,1.45-2,6.4,6.4,0,0,0,.52-2.63A6.13,6.13,0,0,0,716.77,161Z" fill="#fb9e25"/>
      <path d="M460,150.84a1.75,1.75,0,0,0,1.47-.61,2.06,2.06,0,0,0,.49-1.35,2,2,0,0,0-.49-1.31A1.75,1.75,0,0,0,460,147h-9.89a1.88,1.88,0,0,0-1.36.59,1.85,1.85,0,0,0-.59,1.37v19.4a2,2,0,0,0,1.95,2H460a1.77,1.77,0,0,0,1.47-.6,2.06,2.06,0,0,0,0-2.67,1.75,1.75,0,0,0-1.47-.61h-7.93v-6.18h5.27a1.8,1.8,0,0,0,1.47-.6,2.06,2.06,0,0,0,0-2.67,1.77,1.77,0,0,0-1.47-.61h-5.27v-5.5Z" fill="#fb9e25"/>
      <path d="M442.24,158.74a14.62,14.62,0,0,0-2.36-1.71l-2.37-1.35a14,14,0,0,1-1.82-1.19,1.64,1.64,0,0,1-.73-1.25v-.51a1.84,1.84,0,0,1,.76-1.54,3.12,3.12,0,0,1,1.88-.55h.3a3.67,3.67,0,0,1,2,.47,1.36,1.36,0,0,1,.74,1.15,1.57,1.57,0,0,0,.59,1.35,2.17,2.17,0,0,0,1.3.44,2.24,2.24,0,0,0,1.37-.46,1.63,1.63,0,0,0,.62-1.43,4.55,4.55,0,0,0-.54-2.21,5.3,5.3,0,0,0-1.45-1.71,6.83,6.83,0,0,0-2.09-1.1,8.22,8.22,0,0,0-2.5-.38h-.3a7.24,7.24,0,0,0-4.37,1.51,6.06,6.06,0,0,0-1.57,1.81,4.82,4.82,0,0,0-.61,2.45v.71a4.66,4.66,0,0,0,.73,2.65,8.18,8.18,0,0,0,1.82,2,15.7,15.7,0,0,0,2.36,1.54c.84.45,1.63.9,2.36,1.35a8.41,8.41,0,0,1,1.83,1.47,2.65,2.65,0,0,1,.72,1.84A2.26,2.26,0,0,1,440,166a3.39,3.39,0,0,1-2.13.64h-.3a3,3,0,0,1-2.08-.72,2.77,2.77,0,0,1-.79-2.15,1.74,1.74,0,0,0-.61-1.46,2.06,2.06,0,0,0-1.35-.49,2.1,2.1,0,0,0-1.35.49,1.77,1.77,0,0,0-.61,1.46,7.09,7.09,0,0,0,.54,2.84,6.07,6.07,0,0,0,1.49,2.11A6.7,6.7,0,0,0,435,170a7.45,7.45,0,0,0,2.58.45h.3a8.08,8.08,0,0,0,2.74-.45,6.68,6.68,0,0,0,2.17-1.3,5.9,5.9,0,0,0,1.45-2,6.4,6.4,0,0,0,.53-2.63,6,6,0,0,0-.73-3A8.83,8.83,0,0,0,442.24,158.74Z" fill="#fb9e25"/>
      <path d="M408.74,150.84a1.77,1.77,0,0,0,1.47-.61,2.12,2.12,0,0,0,.49-1.35,2.07,2.07,0,0,0-.49-1.31,1.77,1.77,0,0,0-1.47-.61h-9.89a2,2,0,0,0-2,2v19.4a1.89,1.89,0,0,0,.59,1.37,1.85,1.85,0,0,0,1.37.59h9.89a1.8,1.8,0,0,0,1.47-.6,2.06,2.06,0,0,0,0-2.67,1.77,1.77,0,0,0-1.47-.61h-7.93v-6.18h5.26a1.8,1.8,0,0,0,1.47-.6,2.06,2.06,0,0,0,0-2.67,1.77,1.77,0,0,0-1.47-.61h-5.26v-5.5Z" fill="#fb9e25"/>
      <path d="M498,158.2a9.34,9.34,0,0,0,1.55-2,5.46,5.46,0,0,0,.61-2.75,6.61,6.61,0,0,0-.49-2.57,6.25,6.25,0,0,0-1.37-2.05,6,6,0,0,0-2.07-1.37,6.79,6.79,0,0,0-2.62-.49H488.8a1.88,1.88,0,0,0-1.36.59,1.85,1.85,0,0,0-.59,1.37v19.4a2,2,0,0,0,1.95,2h4.83a6.66,6.66,0,0,0,2.65-.52,6.93,6.93,0,0,0,2.16-1.44,6.69,6.69,0,0,0,1.47-2.14,6.51,6.51,0,0,0,.54-2.65v-.27a5.63,5.63,0,0,0-.71-2.87A10.14,10.14,0,0,0,498,158.2Zm-7.26-7.36h2.9a2.66,2.66,0,0,1,1.88.68,2.5,2.5,0,0,1,.72,1.92,2.92,2.92,0,0,1-.76,2.09,2.41,2.41,0,0,1-1.84.81h-2.9Zm5.77,12.69a2.87,2.87,0,0,1-2.87,2.87h-2.9v-6.18h2.9a2.52,2.52,0,0,1,1.09.24,3.34,3.34,0,0,1,.91.64,3,3,0,0,1,.87,2.16Z" fill="#fb9e25"/>
      <path d="M646.74,143.68l5.74,2.71a2.25,2.25,0,0,0,.88.23,1.67,1.67,0,0,0,1.33-.62,2.11,2.11,0,0,0,.53-1.37,1.81,1.81,0,0,0-.28-.95,1.91,1.91,0,0,0-.84-.7l-5.74-2.74-.47-.17a1.39,1.39,0,0,0-.4-.06,1.65,1.65,0,0,0-1.34.62,2.08,2.08,0,0,0-.52,1.37,1.86,1.86,0,0,0,.27,1A1.88,1.88,0,0,0,646.74,143.68Z" fill="#fb9e25"/>
      <path d="M425.45,146.76a2.1,2.1,0,0,0-1.35.47,1.71,1.71,0,0,0-.61,1.45V160.6l-5.37-12.16a4.82,4.82,0,0,0-.74-1.18,1.71,1.71,0,0,0-1.38-.5h-.44a1.85,1.85,0,0,0-1.37.59,1.88,1.88,0,0,0-.59,1.36v19.82a1.72,1.72,0,0,0,.61,1.45,2.15,2.15,0,0,0,1.35.47,2.19,2.19,0,0,0,1.35-.47,1.74,1.74,0,0,0,.6-1.45V156.17L423,168.8a4.35,4.35,0,0,0,.74,1.16,1.77,1.77,0,0,0,1.39.49h.37a1.9,1.9,0,0,0,1.36-.57,1.81,1.81,0,0,0,.59-1.35V148.68a1.73,1.73,0,0,0-.6-1.45A2.13,2.13,0,0,0,425.45,146.76Z" fill="#fb9e25"/>
      <path d="M695.35,148.41a2.15,2.15,0,0,0-1-1.4,2.91,2.91,0,0,0-1.21-.25A3,3,0,0,0,692,147a2.18,2.18,0,0,0-.94,1.4L684.85,168a1.49,1.49,0,0,0-.08.32c0,.11,0,.21,0,.33a1.64,1.64,0,0,0,.62,1.36,2.22,2.22,0,0,0,1.41.49,2.1,2.1,0,0,0,1.08-.3,1.81,1.81,0,0,0,.74-1.05l1.25-4.08h6.68l1.25,4.08a1.8,1.8,0,0,0,.73,1.05,2,2,0,0,0,1.06.3A2.19,2.19,0,0,0,701,170a1.61,1.61,0,0,0,.62-1.36,2.19,2.19,0,0,0-.1-.65Zm-4.29,12.73,2.13-7.13,2.13,7.13Z" fill="#fb9e25"/>
      <path d="M628.8,158.74a14.62,14.62,0,0,0-2.36-1.71l-2.36-1.35a14.23,14.23,0,0,1-1.83-1.19,1.63,1.63,0,0,1-.72-1.25v-.51a1.81,1.81,0,0,1,.76-1.54,3.07,3.07,0,0,1,1.87-.55h.3a3.64,3.64,0,0,1,2,.47,1.34,1.34,0,0,1,.74,1.15,1.56,1.56,0,0,0,.6,1.35,2.12,2.12,0,0,0,1.29.44,2.22,2.22,0,0,0,1.37-.46,1.64,1.64,0,0,0,.63-1.43,4.55,4.55,0,0,0-.54-2.21,5.33,5.33,0,0,0-1.46-1.71,6.83,6.83,0,0,0-2.09-1.1,8.22,8.22,0,0,0-2.5-.38h-.3a7.24,7.24,0,0,0-4.37,1.51,6.06,6.06,0,0,0-1.57,1.81,4.82,4.82,0,0,0-.61,2.45v.71a4.66,4.66,0,0,0,.73,2.65,8.18,8.18,0,0,0,1.82,2,15.7,15.7,0,0,0,2.36,1.54q1.28.68,2.37,1.35a8.34,8.34,0,0,1,1.82,1.47,2.65,2.65,0,0,1,.72,1.84,2.26,2.26,0,0,1-.84,1.92,3.39,3.39,0,0,1-2.13.64h-.3a3,3,0,0,1-2.08-.72,2.81,2.81,0,0,1-.79-2.15,1.74,1.74,0,0,0-.61-1.46,2.06,2.06,0,0,0-1.35-.49,2.1,2.1,0,0,0-1.35.49,1.76,1.76,0,0,0-.6,1.46,7.09,7.09,0,0,0,.54,2.84,6,6,0,0,0,1.48,2.11,6.81,6.81,0,0,0,2.18,1.32,7.45,7.45,0,0,0,2.58.45h.3a8,8,0,0,0,2.74-.45,6.72,6.72,0,0,0,2.18-1.3,6.17,6.17,0,0,0,1.45-2,6.4,6.4,0,0,0,.52-2.63,6,6,0,0,0-.73-3A8.83,8.83,0,0,0,628.8,158.74Z" fill="#fb9e25"/>
      <path d="M595.27,148.92a6.77,6.77,0,0,0-2.15-1.44,6.57,6.57,0,0,0-2.61-.52h-5.1a2,2,0,0,0-2,2v19.61a1.75,1.75,0,0,0,.61,1.45,2.17,2.17,0,0,0,2.7,0,1.72,1.72,0,0,0,.61-1.45v-8.1h3.14a6.58,6.58,0,0,0,2.61-.53,6.74,6.74,0,0,0,2.15-1.43,7.1,7.1,0,0,0,1.45-2.14,6.58,6.58,0,0,0,.54-2.65,6.43,6.43,0,0,0-.54-2.62A7,7,0,0,0,595.27,148.92Zm-2.75,6.78a2.74,2.74,0,0,1-2,.84h-3.14v-5.7h3.14a2.72,2.72,0,0,1,1.11.22,2.92,2.92,0,0,1,.9.61,2.83,2.83,0,0,1,.6.91,2.74,2.74,0,0,1,.22,1.1A2.79,2.79,0,0,1,592.52,155.7Z" fill="#fb9e25"/>
      <path d="M609.21,148.41a2.19,2.19,0,0,0-1-1.4,3.08,3.08,0,0,0-2.43,0,2.15,2.15,0,0,0-.94,1.4L598.71,168a1.57,1.57,0,0,0-.09.32c0,.11,0,.21,0,.33a1.64,1.64,0,0,0,.62,1.36,2.21,2.21,0,0,0,1.4.49,2,2,0,0,0,1.08-.3,1.78,1.78,0,0,0,.75-1.05l1.25-4.08h6.68l1.25,4.08a1.79,1.79,0,0,0,.72,1.05,2,2,0,0,0,1.07.3,2.21,2.21,0,0,0,1.4-.49,1.64,1.64,0,0,0,.62-1.36,2.19,2.19,0,0,0-.1-.65Zm-4.29,12.73,2.13-7.13,2.12,7.13Z" fill="#fb9e25"/>
      <path d="M681.41,148.92a6.67,6.67,0,0,0-4.76-2h-5.1a1.88,1.88,0,0,0-1.36.59,1.86,1.86,0,0,0-.6,1.37v19.61a1.75,1.75,0,0,0,.61,1.45,2.19,2.19,0,0,0,1.35.47,2.15,2.15,0,0,0,1.35-.47,1.72,1.72,0,0,0,.61-1.45v-8.1h3.14a6.78,6.78,0,0,0,4.76-2,6.92,6.92,0,0,0,1.45-2.14,6.58,6.58,0,0,0,.54-2.65,6.43,6.43,0,0,0-.54-2.62A6.8,6.8,0,0,0,681.41,148.92Zm-2.75,6.78a2.71,2.71,0,0,1-2,.84h-3.14v-5.7h3.14a2.68,2.68,0,0,1,1.11.22,2.92,2.92,0,0,1,.9.61,2.85,2.85,0,0,1,.61.91,2.92,2.92,0,0,1,.22,1.1A2.79,2.79,0,0,1,678.66,155.7Z" fill="#fb9e25"/>
      <path d="M570.66,147h-9.32a1.77,1.77,0,0,0-1.47.61,2.06,2.06,0,0,0-.48,1.31,2.11,2.11,0,0,0,.48,1.35,1.77,1.77,0,0,0,1.47.61H564v17.69a1.75,1.75,0,0,0,.61,1.45,2.19,2.19,0,0,0,1.35.47,2.15,2.15,0,0,0,1.35-.47,1.72,1.72,0,0,0,.61-1.45V150.84h2.7a1.77,1.77,0,0,0,1.47-.61,2.12,2.12,0,0,0,.49-1.35,2.07,2.07,0,0,0-.49-1.31A1.77,1.77,0,0,0,570.66,147Z" fill="#fb9e25"/>
      <path d="M531.37,150.84a1.77,1.77,0,0,0,1.47-.61,2.12,2.12,0,0,0,.49-1.35,2.07,2.07,0,0,0-.49-1.31,1.77,1.77,0,0,0-1.47-.61h-9.89a2,2,0,0,0-2,2v19.4a1.89,1.89,0,0,0,.59,1.37,1.85,1.85,0,0,0,1.37.59h9.89a1.8,1.8,0,0,0,1.47-.6,2.06,2.06,0,0,0,0-2.67,1.77,1.77,0,0,0-1.47-.61h-7.93v-6.18h5.26a1.8,1.8,0,0,0,1.47-.6,2.06,2.06,0,0,0,0-2.67,1.77,1.77,0,0,0-1.47-.61h-5.26v-5.5Z" fill="#fb9e25"/>
      <path d="M652.18,148.41a2.19,2.19,0,0,0-.95-1.4,3.08,3.08,0,0,0-2.43,0,2.15,2.15,0,0,0-.94,1.4L641.68,168a1.57,1.57,0,0,0-.09.32c0,.11,0,.21,0,.33a1.64,1.64,0,0,0,.62,1.36,2.21,2.21,0,0,0,1.4.49,2,2,0,0,0,1.08-.3,1.78,1.78,0,0,0,.75-1.05l1.25-4.08h6.68l1.25,4.08a1.79,1.79,0,0,0,.72,1.05,2,2,0,0,0,1.07.3,2.21,2.21,0,0,0,1.4-.49,1.64,1.64,0,0,0,.62-1.36,2.19,2.19,0,0,0-.1-.65Zm-4.29,12.73L650,154l2.12,7.13Z" fill="#fb9e25"/>
      <path d="M556.35,150.84a1.77,1.77,0,0,0,1.47-.61,2.11,2.11,0,0,0,.48-1.35,2.06,2.06,0,0,0-.48-1.31,1.77,1.77,0,0,0-1.47-.61h-9.89a2,2,0,0,0-2,2v19.4a1.89,1.89,0,0,0,.59,1.37,1.85,1.85,0,0,0,1.37.59h9.89a1.8,1.8,0,0,0,1.47-.6,2.1,2.1,0,0,0,0-2.67,1.77,1.77,0,0,0-1.47-.61h-7.94v-6.18h5.27a1.8,1.8,0,0,0,1.47-.6,2.06,2.06,0,0,0,0-2.67,1.77,1.77,0,0,0-1.47-.61h-5.27v-5.5Z" fill="#fb9e25"/>
      <path d="M514.66,166.4H508V148.71a1.74,1.74,0,0,0-.61-1.46,2.06,2.06,0,0,0-1.35-.49,2.1,2.1,0,0,0-1.35.49,1.77,1.77,0,0,0-.61,1.46v19.61a2,2,0,0,0,2,2h8.61a1.8,1.8,0,0,0,1.47-.6,2.06,2.06,0,0,0,0-2.67A1.77,1.77,0,0,0,514.66,166.4Z" fill="#fb9e25"/>
      <path d="M209.22,113.84q-15.12-1-30.26-1.17-.37,5.68-.89,11.35c-.68,7.55-7.78,14.38-15.31,14.88q-15.72,1-31.47,1.66c0,.79,0,1.59,0,2.38,0,7.28.33,14.57,1,21.83a8.42,8.42,0,0,0,7.48,7.25q11,.73,22,1l-.06,17.72L179,173.2h.5c9.92-.1,19.85-.51,29.76-1.17a8.43,8.43,0,0,0,7.48-7.26c.65-7.26,1-14.55,1-21.83s-.33-14.56-1-21.84A8.47,8.47,0,0,0,209.22,113.84Z" fill="#fb9e25"/>
    </g>
  </g>
  <path d="M179,112.65q-.37,5.68-.89,11.37c-.68,7.55-7.78,14.38-15.31,14.88q-15.73,1-31.49,1.66.1-9.74,1-19.46a8.43,8.43,0,0,1,7.47-7.26c11.58-.77,23.18-1.21,34.75-1.21Z" fill="#cf7118" fill-rule="evenodd"/>
</svg>
